HIERARCHY
ROOT mixamorig:Hips
{
	OFFSET -0.000008 104.274872 1.554316
	CHANNELS 6 Xposition Yposition Zposition Xrotation Yrotation Zrotation
	JOINT mixamorig:Spine
	{
		OFFSET -0.000005 10.181595 0.131519
		CHANNELS 6 Xposition Yposition Zposition Xrotation Yrotation Zrotation
		JOINT mixamorig:Spine1
		{
			OFFSET -0.000000 9.893959 -1.470707
			CHANNELS 6 Xposition Yposition Zposition Xrotation Yrotation Zrotation
			JOINT mixamorig:Spine2
			{
				OFFSET -0.000000 9.220757 -1.370641
				CHANNELS 6 Xposition Yposition Zposition Xrotation Yrotation Zrotation
				JOINT mixamorig:Neck
				{
					OFFSET 0.000001 16.740417 -2.049036
					CHANNELS 6 Xposition Yposition Zposition Xrotation Yrotation Zrotation
					JOINT mixamorig:Head
					{
						OFFSET 0.000000 9.617874 1.685006
						CHANNELS 6 Xposition Yposition Zposition Xrotation Yrotation Zrotation
						JOINT mixamorig:HeadTop_End
						{
							OFFSET 0.000002 22.037354 7.501101
							CHANNELS 6 Xposition Yposition Zposition Xrotation Yrotation Zrotation
							End Site
							{
								OFFSET 0.000168 2310.654297 -282.823242
							}
						}
					}
				}
				JOINT mixamorig:RightShoulder
				{
					OFFSET -4.569970 11.014908 -2.160885
					CHANNELS 6 Xposition Yposition Zposition Xrotation Yrotation Zrotation
					JOINT mixamorig:RightArm
					{
						OFFSET -10.592851 -0.524811 -2.232101
						CHANNELS 6 Xposition Yposition Zposition Xrotation Yrotation Zrotation
						JOINT mixamorig:RightForeArm
						{
							OFFSET -27.841511 0.000031 -0.000004
							CHANNELS 6 Xposition Yposition Zposition Xrotation Yrotation Zrotation
							JOINT mixamorig:RightHand
							{
								OFFSET -28.328831 -0.000015 0.000015
								CHANNELS 6 Xposition Yposition Zposition Xrotation Yrotation Zrotation
								JOINT mixamorig:RightHandThumb1
								{
									OFFSET -2.464806 -1.573990 2.681852
									CHANNELS 6 Xposition Yposition Zposition Xrotation Yrotation Zrotation
									JOINT mixamorig:RightHandThumb2
									{
										OFFSET -3.215179 -1.872803 1.924282
										CHANNELS 6 Xposition Yposition Zposition Xrotation Yrotation Zrotation
										JOINT mixamorig:RightHandThumb3
										{
											OFFSET -2.654831 -1.527969 1.512609
											CHANNELS 6 Xposition Yposition Zposition Xrotation Yrotation Zrotation
											JOINT mixamorig:RightHandThumb4
											{
												OFFSET -2.018814 -1.152008 1.108052
												CHANNELS 6 Xposition Yposition Zposition Xrotation Yrotation Zrotation
												End Site
												{
													OFFSET -188.809540 -114.533607 132.431396
												}
											}
										}
									}
								}
								JOINT mixamorig:RightHandIndex1
								{
									OFFSET -9.108284 -0.517868 2.259835
									CHANNELS 6 Xposition Yposition Zposition Xrotation Yrotation Zrotation
									JOINT mixamorig:RightHandIndex2
									{
										OFFSET -3.699989 0.000000 0.001215
										CHANNELS 6 Xposition Yposition Zposition Xrotation Yrotation Zrotation
										JOINT mixamorig:RightHandIndex3
										{
											OFFSET -2.850006 0.000031 -0.000522
											CHANNELS 6 Xposition Yposition Zposition Xrotation Yrotation Zrotation
											JOINT mixamorig:RightHandIndex4
											{
												OFFSET -2.772186 -0.000015 -0.000020
												CHANNELS 6 Xposition Yposition Zposition Xrotation Yrotation Zrotation
												End Site
												{
													OFFSET -277.218445 0.000000 -0.050231
												}
											}
										}
									}
								}
								JOINT mixamorig:RightHandMiddle1
								{
									OFFSET -9.532516 -0.000031 -0.000023
									CHANNELS 6 Xposition Yposition Zposition Xrotation Yrotation Zrotation
									JOINT mixamorig:RightHandMiddle2
									{
										OFFSET -3.700005 -0.000015 0.003713
										CHANNELS 6 Xposition Yposition Zposition Xrotation Yrotation Zrotation
										JOINT mixamorig:RightHandMiddle3
										{
											OFFSET -2.949974 0.000015 -0.002054
											CHANNELS 6 Xposition Yposition Zposition Xrotation Yrotation Zrotation
											JOINT mixamorig:RightHandMiddle4
											{
												OFFSET -2.946640 0.000000 -0.000156
												CHANNELS 6 Xposition Yposition Zposition Xrotation Yrotation Zrotation
												End Site
												{
													OFFSET -294.664337 0.000000 -0.113670
												}
											}
										}
									}
								}
								JOINT mixamorig:RightHandRing1
								{
									OFFSET -9.103600 -0.043076 -1.865134
									CHANNELS 6 Xposition Yposition Zposition Xrotation Yrotation Zrotation
									JOINT mixamorig:RightHandRing2
									{
										OFFSET -3.379288 0.000000 -0.001055
										CHANNELS 6 Xposition Yposition Zposition Xrotation Yrotation Zrotation
										JOINT mixamorig:RightHandRing3
										{
											OFFSET -2.889687 -0.000015 0.000379
											CHANNELS 6 Xposition Yposition Zposition Xrotation Yrotation Zrotation
											JOINT mixamorig:RightHandRing4
											{
												OFFSET -2.638809 -0.000015 0.000941
												CHANNELS 6 Xposition Yposition Zposition Xrotation Yrotation Zrotation
												End Site
												{
													OFFSET -263.880371 0.000000 0.516020
												}
											}
										}
									}
								}
								JOINT mixamorig:RightHandPinky1
								{
									OFFSET -8.076683 -0.486710 -3.806280
									CHANNELS 6 Xposition Yposition Zposition Xrotation Yrotation Zrotation
									JOINT mixamorig:RightHandPinky2
									{
										OFFSET -3.600014 -0.000015 -0.003747
										CHANNELS 6 Xposition Yposition Zposition Xrotation Yrotation Zrotation
										JOINT mixamorig:RightHandPinky3
										{
											OFFSET -2.099983 0.000000 -0.005739
											CHANNELS 6 Xposition Yposition Zposition Xrotation Yrotation Zrotation
											JOINT mixamorig:RightHandPinky4
											{
												OFFSET -2.115768 -0.000031 -0.003680
												CHANNELS 6 Xposition Yposition Zposition Xrotation Yrotation Zrotation
												End Site
												{
													OFFSET -211.577087 0.000000 -0.350686
												}
											}
										}
									}
								}
							}
						}
					}
				}
				JOINT mixamorig:LeftShoulder
				{
					OFFSET 4.570447 11.014725 -2.160855
					CHANNELS 6 Xposition Yposition Zposition Xrotation Yrotation Zrotation
					JOINT mixamorig:LeftArm
					{
						OFFSET 10.592371 -0.524597 -2.232119
						CHANNELS 6 Xposition Yposition Zposition Xrotation Yrotation Zrotation
						JOINT mixamorig:LeftForeArm
						{
							OFFSET 27.841532 -0.000031 0.000026
							CHANNELS 6 Xposition Yposition Zposition Xrotation Yrotation Zrotation
							JOINT mixamorig:LeftHand
							{
								OFFSET 28.328846 -0.000061 0.000022
								CHANNELS 6 Xposition Yposition Zposition Xrotation Yrotation Zrotation
								JOINT mixamorig:LeftHandThumb1
								{
									OFFSET 2.466141 -1.576172 2.681732
									CHANNELS 6 Xposition Yposition Zposition Xrotation Yrotation Zrotation
									JOINT mixamorig:LeftHandThumb2
									{
										OFFSET 3.217812 -1.872070 1.916482
										CHANNELS 6 Xposition Yposition Zposition Xrotation Yrotation Zrotation
										JOINT mixamorig:LeftHandThumb3
										{
											OFFSET 2.656029 -1.528778 1.514513
											CHANNELS 6 Xposition Yposition Zposition Xrotation Yrotation Zrotation
											JOINT mixamorig:LeftHandThumb4
											{
												OFFSET 2.020889 -1.154053 1.115139
												CHANNELS 6 Xposition Yposition Zposition Xrotation Yrotation Zrotation
												End Site
												{
													OFFSET 190.885437 -115.081749 130.048782
												}
											}
										}
									}
								}
								JOINT mixamorig:LeftHandIndex1
								{
									OFFSET 9.109314 -0.518021 2.259871
									CHANNELS 6 Xposition Yposition Zposition Xrotation Yrotation Zrotation
									JOINT mixamorig:LeftHandIndex2
									{
										OFFSET 3.699989 0.000000 -0.000322
										CHANNELS 6 Xposition Yposition Zposition Xrotation Yrotation Zrotation
										JOINT mixamorig:LeftHandIndex3
										{
											OFFSET 2.850006 0.000000 0.000352
											CHANNELS 6 Xposition Yposition Zposition Xrotation Yrotation Zrotation
											JOINT mixamorig:LeftHandIndex4
											{
												OFFSET 2.774864 -0.000031 -0.000027
												CHANNELS 6 Xposition Yposition Zposition Xrotation Yrotation Zrotation
												End Site
												{
													OFFSET 277.486267 0.000000 -0.009857
												}
											}
										}
									}
								}
								JOINT mixamorig:LeftHandMiddle1
								{
									OFFSET 9.533394 0.000061 0.000044
									CHANNELS 6 Xposition Yposition Zposition Xrotation Yrotation Zrotation
									JOINT mixamorig:LeftHandMiddle2
									{
										OFFSET 3.699989 -0.000015 -0.000231
										CHANNELS 6 Xposition Yposition Zposition Xrotation Yrotation Zrotation
										JOINT mixamorig:LeftHandMiddle3
										{
											OFFSET 2.949997 -0.000015 -0.000059
											CHANNELS 6 Xposition Yposition Zposition Xrotation Yrotation Zrotation
											JOINT mixamorig:LeftHandMiddle4
											{
												OFFSET 2.952896 0.000031 0.000063
												CHANNELS 6 Xposition Yposition Zposition Xrotation Yrotation Zrotation
												End Site
												{
													OFFSET 295.289337 0.000000 0.022810
												}
											}
										}
									}
								}
								JOINT mixamorig:LeftHandRing1
								{
									OFFSET 9.104523 -0.042999 -1.865074
									CHANNELS 6 Xposition Yposition Zposition Xrotation Yrotation Zrotation
									JOINT mixamorig:LeftHandRing2
									{
										OFFSET 3.150009 -0.000031 0.000043
										CHANNELS 6 Xposition Yposition Zposition Xrotation Yrotation Zrotation
										JOINT mixamorig:LeftHandRing3
										{
											OFFSET 2.949982 -0.000015 0.000040
											CHANNELS 6 Xposition Yposition Zposition Xrotation Yrotation Zrotation
											JOINT mixamorig:LeftHandRing4
											{
												OFFSET 2.644348 0.000000 0.000057
												CHANNELS 6 Xposition Yposition Zposition Xrotation Yrotation Zrotation
												End Site
												{
													OFFSET 264.434631 0.000000 0.012105
												}
											}
										}
									}
								}
								JOINT mixamorig:LeftHandPinky1
								{
									OFFSET 8.077789 -0.486847 -3.806259
									CHANNELS 6 Xposition Yposition Zposition Xrotation Yrotation Zrotation
									JOINT mixamorig:LeftHandPinky2
									{
										OFFSET 3.599953 0.000031 0.014727
										CHANNELS 6 Xposition Yposition Zposition Xrotation Yrotation Zrotation
										JOINT mixamorig:LeftHandPinky3
										{
											OFFSET 2.100021 0.000015 0.007705
											CHANNELS 6 Xposition Yposition Zposition Xrotation Yrotation Zrotation
											JOINT mixamorig:LeftHandPinky4
											{
												OFFSET 2.125504 0.000031 0.007517
												CHANNELS 6 Xposition Yposition Zposition Xrotation Yrotation Zrotation
												End Site
												{
													OFFSET 212.550781 0.000000 0.625752
												}
											}
										}
									}
								}
							}
						}
					}
				}
			}
		}
	}
	JOINT mixamorig:RightUpLeg
	{
		OFFSET -8.207787 -6.751648 -1.599560
		CHANNELS 6 Xposition Yposition Zposition Xrotation Yrotation Zrotation
		JOINT mixamorig:RightLeg
		{
			OFFSET -0.000002 -44.370117 0.345942
			CHANNELS 6 Xposition Yposition Zposition Xrotation Yrotation Zrotation
			JOINT mixamorig:RightFoot
			{
				OFFSET 0.000003 -44.423679 -3.043532
				CHANNELS 6 Xposition Yposition Zposition Xrotation Yrotation Zrotation
				JOINT mixamorig:RightToeBase
				{
					OFFSET -0.000002 -8.728671 10.710558
					CHANNELS 6 Xposition Yposition Zposition Xrotation Yrotation Zrotation
					JOINT mixamorig:RightToe_End
					{
						OFFSET -0.000001 -0.000679 9.278119
						CHANNELS 6 Xposition Yposition Zposition Xrotation Yrotation Zrotation
						End Site
						{
							OFFSET 0.000000 -0.067690 927.812134
						}
					}
				}
			}
		}
	}
	JOINT mixamorig:LeftUpLeg
	{
		OFFSET 8.207793 -6.751686 -1.599556
		CHANNELS 6 Xposition Yposition Zposition Xrotation Yrotation Zrotation
		JOINT mixamorig:LeftLeg
		{
			OFFSET -0.000004 -44.370014 0.346954
			CHANNELS 6 Xposition Yposition Zposition Xrotation Yrotation Zrotation
			JOINT mixamorig:LeftFoot
			{
				OFFSET -0.000001 -44.423672 -3.044401
				CHANNELS 6 Xposition Yposition Zposition Xrotation Yrotation Zrotation
				JOINT mixamorig:LeftToeBase
				{
					OFFSET -0.000002 -8.728669 10.710558
					CHANNELS 6 Xposition Yposition Zposition Xrotation Yrotation Zrotation
					JOINT mixamorig:LeftToe_End
					{
						OFFSET -0.000003 -0.000679 9.278133
						CHANNELS 6 Xposition Yposition Zposition Xrotation Yrotation Zrotation
						End Site
						{
							OFFSET 0.000000 -0.068021 927.813477
						}
					}
				}
			}
		}
	}
}
MOTION
Frames: 3
Frame Time: 0.033333
0.000006 104.270477 1.554256 0.000010 0.000003 -0.000113 -0.000005 10.181587 0.131522 0.000001 -0.000003 0.000084 -0.000000 9.893967 -1.470711 0.000001 0.000000 -0.000000 -0.000000 9.220802 -1.370642 0.000000 -0.000000 -0.000000 0.000001 16.740433 -2.049030 0.000000 -0.000000 -0.000000 0.000000 9.617859 1.685014 0.000000 0.000000 0.000000 0.000002 22.037384 7.501101 0.000000 -0.000000 0.000000 -4.569968 11.014880 -2.160881 0.000008 0.000001 -0.000038 -10.592869 -0.524783 -2.231894 69.224329 34.281481 -24.033341 -27.841534 0.000016 0.000548 -55.552425 115.394202 79.593868 -28.328831 0.000023 0.000022 -0.000323 -0.000044 0.000008 -2.464427 -1.573908 2.682388 -33.109509 -155.212251 21.580389 -3.215252 -1.872540 1.924645 152.659933 34.039511 21.626348 -2.654956 -1.527859 1.513082 147.186984 27.041207 -35.529886 -2.018827 -1.151998 1.108057 -0.000002 -0.000003 0.000002 -9.108388 -0.517552 2.260142 102.467420 16.595702 -20.645051 -3.700072 0.000314 0.001512 100.147936 13.116490 -15.615583 -2.850084 0.000368 -0.000249 99.174866 10.459374 -12.270286 -2.772162 -0.000014 -0.000019 -0.000000 -0.000001 -0.000001 -9.532594 0.000267 0.000251 93.700988 17.451466 -18.750532 -3.700066 0.000340 0.003966 93.185282 11.223150 -11.761651 -2.950043 0.000347 -0.001808 94.589534 10.742133 -11.625478 -2.946631 -0.000000 -0.000153 -0.000002 0.000000 -0.000000 -9.103713 -0.042778 -1.864874 90.394965 18.826742 -18.908988 -3.379330 0.000320 -0.000807 91.330018 9.685673 -9.929797 -2.889736 0.000361 0.000639 96.377343 6.779259 -7.627744 -2.638820 -0.000019 0.000939 -0.000000 0.000001 0.000001 -8.076759 -0.486416 -3.806061 79.031149 19.281725 -15.823077 -3.600047 0.000263 -0.003556 80.546973 11.168473 -9.158408 -2.100020 0.000306 -0.005518 83.787420 7.184850 -6.245488 -2.115768 -0.000025 -0.003675 0.000005 0.000001 -0.000006 4.570446 11.014691 -2.160851 -0.000018 0.000010 -0.000021 10.592457 -0.524598 -2.232323 10.756348 -65.693203 6.956369 27.841728 -0.000104 -0.000075 54.947038 -111.206661 74.433858 28.328829 -0.000039 0.000016 0.000020 -0.000088 0.000001 2.466128 -1.576177 2.681868 17.263344 128.883839 -76.599267 3.217804 -1.872024 1.916537 48.195574 138.738627 -111.354473 2.656079 -1.528762 1.514611 44.050407 151.533252 -115.494032 2.020875 -1.154077 1.115151 -0.000001 0.000002 0.000003 9.109221 -0.517851 2.260115 257.402646 -24.572649 -30.408378 3.699752 0.000240 -0.000148 212.204183 -24.846073 -74.697968 2.849762 0.000080 0.000486 186.007962 -17.121725 -141.567091 2.774870 -0.000047 -0.000030 0.000001 -0.000002 -0.000002 9.533161 0.000125 0.000183 191.152543 -28.497619 222.043836 3.700035 0.000261 -0.000373 107.329039 -7.693195 10.442712 2.949977 0.000179 -0.000234 78.039508 6.334135 -5.132932 2.952869 0.000001 0.000058 -0.000001 0.000003 0.000001 9.104465 -0.043038 -1.865005 175.674241 -25.370758 160.958203 3.149964 0.000277 -0.000145 94.194347 10.550688 -11.346401 2.949896 0.000146 -0.000188 63.021015 26.283881 -16.291056 2.644322 0.000061 0.000054 -0.000000 0.000002 0.000001 8.077789 -0.486907 -3.806200 172.954282 -17.136021 139.240154 3.599888 0.000300 0.014532 100.111906 14.042502 -16.367966 2.099924 0.000134 0.007496 62.637670 25.852896 -15.795608 2.125489 -0.000033 0.007517 -0.000000 -0.000004 -0.000000 -8.207786 -6.751667 -1.599560 -0.077001 -0.000003 0.000080 -0.000002 -44.370110 0.345938 0.153719 -0.000000 -0.000000 0.000000 -44.423679 -3.043532 -0.076700 0.000000 -0.000002 -0.000006 -8.728667 10.710559 -0.000009 -0.000000 -0.000000 -0.000001 -0.000679 9.278123 0.000000 -0.000000 -0.000000 8.207792 -6.751710 -1.599556 -0.074518 -0.000003 0.000081 -0.000002 -44.370014 0.346960 0.148822 0.000002 0.000000 -0.000001 -44.423664 -3.044403 -0.074314 0.000000 -0.000002 -0.000004 -8.728671 10.710558 0.000007 -0.000000 -0.000000 0.000000 -0.000680 9.278137 -0.000000 0.000000 -0.000001 
0.000006 104.270477 1.554256 0.000010 0.000003 -0.000113 -0.000005 10.181587 0.131522 0.000001 -0.000003 0.000084 -0.000000 9.893967 -1.470711 0.000001 0.000000 -0.000000 -0.000000 9.220802 -1.370642 0.000000 -0.000000 -0.000000 0.000001 16.740433 -2.049030 0.000000 -0.000000 -0.000000 0.000000 9.617859 1.685014 0.000000 0.000000 0.000000 0.000002 22.037384 7.501101 0.000000 -0.000000 0.000000 -4.569968 11.014880 -2.160881 0.000008 0.000001 -0.000038 -10.592864 -0.524782 -2.231873 69.231726 37.231177 -26.178365 -27.841532 0.000021 0.000548 -55.181669 114.276059 77.943476 -28.328819 0.000011 0.000028 -0.000324 -0.000046 0.000007 -2.464413 -1.573896 2.682374 -34.020462 -155.553474 19.873730 -3.215265 -1.872550 1.924626 152.613651 33.970837 21.259493 -2.654954 -1.527879 1.513068 147.106511 27.068963 -35.396243 -2.018827 -1.151981 1.108071 -0.000003 -0.000003 0.000002 -9.108379 -0.517562 2.260141 102.611271 16.376869 -20.426867 -3.700071 0.000323 0.001527 99.967222 12.922056 -15.335974 -2.850082 0.000369 -0.000239 98.888981 10.331167 -12.059546 -2.772172 0.000001 -0.000021 0.000001 0.000001 0.000000 -9.532576 0.000257 0.000244 93.646736 17.245138 -18.513557 -3.700061 0.000330 0.003966 93.107062 11.130775 -11.648382 -2.950053 0.000349 -0.001812 94.699193 10.660466 -11.559166 -2.946639 0.000002 -0.000152 -0.000001 -0.000000 -0.000000 -9.103690 -0.042753 -1.864894 90.355630 18.597336 -18.665582 -3.379315 0.000324 -0.000817 91.171728 9.523446 -9.736961 -2.889756 0.000365 0.000616 96.475275 6.671380 -7.520059 -2.638809 -0.000000 0.000941 0.000001 -0.000000 0.000003 -8.076748 -0.486412 -3.806065 79.139517 18.952102 -15.578803 -3.600054 0.000261 -0.003543 80.774486 10.803704 -8.885556 -2.100028 0.000310 -0.005512 84.235958 6.975822 -6.106223 -2.115772 -0.000056 -0.003679 0.000002 -0.000003 -0.000002 4.570446 11.014691 -2.160851 -0.000018 0.000010 -0.000021 10.592456 -0.524592 -2.232324 10.116267 -66.168045 6.600638 27.841732 -0.000084 -0.000078 54.766397 -109.933712 72.917044 28.328829 -0.000026 0.000024 0.000021 -0.000089 0.000001 2.466131 -1.576148 2.681891 14.735495 131.184616 -75.430902 3.217816 -1.872013 1.916543 47.945230 136.954855 -110.015155 2.656084 -1.528757 1.514613 44.506302 149.274290 -114.253752 2.020887 -1.154072 1.115141 0.000001 0.000006 0.000004 9.109221 -0.517821 2.260125 258.408896 -24.724170 -30.073121 3.699767 0.000252 -0.000122 211.899502 -24.254605 -73.880845 2.849761 0.000070 0.000447 185.480986 -17.227720 -144.932625 2.774884 -0.000044 -0.000039 0.000001 -0.000001 0.000001 9.533160 0.000172 0.000204 196.303188 -29.663300 236.809844 3.700047 0.000244 -0.000353 109.362359 -7.435355 10.475892 2.949984 0.000170 -0.000244 76.996845 7.484398 -5.954451 2.952867 -0.000016 0.000056 0.000002 -0.000003 -0.000000 9.104408 -0.043012 -1.864975 180.520192 -27.466066 182.134439 3.149956 0.000311 -0.000152 98.329329 9.784286 -11.310348 2.949893 0.000144 -0.000184 63.359608 26.440634 -16.497777 2.644320 0.000062 0.000063 -0.000002 0.000005 0.000002 8.077683 -0.486900 -3.806178 178.092702 -18.530788 171.406165 3.599878 0.000352 0.014542 106.841699 13.204164 -17.312621 2.099927 0.000156 0.007482 65.810567 25.677512 -16.662303 2.125490 0.000017 0.007510 0.000002 -0.000003 -0.000000 -8.207786 -6.751667 -1.599560 -0.077001 -0.000003 0.000080 -0.000002 -44.370110 0.345938 0.153719 -0.000000 -0.000000 0.000000 -44.423679 -3.043532 -0.076700 0.000000 -0.000002 -0.000006 -8.728667 10.710559 -0.000009 -0.000000 -0.000000 -0.000001 -0.000679 9.278123 0.000000 -0.000000 -0.000000 8.207792 -6.751710 -1.599556 -0.074518 -0.000003 0.000081 -0.000002 -44.370014 0.346960 0.148822 0.000002 0.000000 -0.000001 -44.423664 -3.044403 -0.074314 0.000000 -0.000002 -0.000004 -8.728671 10.710558 0.000007 -0.000000 -0.000000 0.000000 -0.000680 9.278137 -0.000000 0.000000 -0.000001 
0.000006 104.270477 1.554256 0.000010 0.000003 -0.000113 -0.000005 10.181587 0.131522 0.000001 -0.000003 0.000084 -0.000000 9.893967 -1.470711 0.000001 0.000000 -0.000000 -0.000000 9.220802 -1.370642 0.000000 -0.000000 -0.000000 0.000001 16.740433 -2.049030 0.000000 -0.000000 -0.000000 0.000000 9.617859 1.685014 0.000000 0.000000 0.000000 0.000002 22.037384 7.501101 0.000000 -0.000000 0.000000 -4.569968 11.014880 -2.160881 0.000008 0.000001 -0.000038 -10.592868 -0.524780 -2.231886 69.162919 36.434227 -25.566141 -27.841536 0.000007 0.000545 -55.213747 114.413995 78.129769 -28.328827 0.000023 0.000029 -0.000324 -0.000044 0.000007 -2.464429 -1.573892 2.682379 -34.497144 -155.979828 19.099282 -3.215266 -1.872531 1.924632 153.169670 33.892881 19.845169 -2.654959 -1.527889 1.513085 147.366304 27.027929 -35.325069 -2.018823 -1.151997 1.108062 -0.000002 0.000001 0.000004 -9.108384 -0.517559 2.260132 102.240473 16.442922 -20.375803 -3.700078 0.000311 0.001527 100.009296 12.762821 -15.158514 -2.850085 0.000376 -0.000254 98.796268 10.199658 -11.886976 -2.772164 -0.000000 -0.000021 -0.000000 -0.000000 0.000000 -9.532590 0.000263 0.000237 93.118346 17.185982 -18.283820 -3.700059 0.000342 0.003963 92.938446 10.950998 -11.425493 -2.950056 0.000338 -0.001819 94.670766 10.596710 -11.484378 -2.946609 0.000002 -0.000154 -0.000001 -0.000001 -0.000000 -9.103707 -0.042765 -1.864877 89.822090 18.602828 -18.501061 -3.379310 0.000330 -0.000838 91.042897 9.467368 -9.658093 -2.889735 0.000367 0.000642 96.680044 6.654607 -7.528245 -2.638813 -0.000021 0.000941 -0.000001 0.000001 0.000001 -8.076760 -0.486392 -3.806059 78.855722 18.979477 -15.523992 -3.600052 0.000262 -0.003543 80.806069 10.872214 -8.948694 -2.100020 0.000308 -0.005525 84.419745 7.014142 -6.160581 -2.115763 -0.000029 -0.003680 -0.000001 0.000000 -0.000002 4.570446 11.014691 -2.160851 -0.000018 0.000010 -0.000021 10.592457 -0.524589 -2.232325 10.511109 -66.229462 6.867097 27.841728 -0.000077 -0.000083 54.968594 -110.521169 73.753653 28.328829 -0.000026 0.000024 0.000020 -0.000087 0.000004 2.466130 -1.576163 2.681877 13.878438 129.732654 -73.444655 3.217813 -1.872029 1.916522 49.766845 137.972471 -112.174744 2.656104 -1.528753 1.514640 46.289602 151.006685 -116.875246 2.020891 -1.154081 1.115134 0.000001 0.000006 0.000006 9.109234 -0.517817 2.260125 257.032613 -25.188223 -31.354376 3.699761 0.000232 -0.000134 211.940401 -25.946862 -77.671163 2.849813 0.000015 0.000453 181.737236 -17.857415 -168.982104 2.774897 -0.000014 -0.000017 0.000004 -0.000003 -0.000001 9.533164 0.000148 0.000191 192.248747 -29.332189 224.571443 3.700057 0.000281 -0.000362 109.708056 -7.572625 10.736916 2.949986 0.000181 -0.000232 79.659458 6.309083 -5.261880 2.952869 -0.000001 0.000054 0.000002 0.000003 0.000001 9.104451 -0.043010 -1.864987 178.053483 -26.337433 171.701284 3.149962 0.000287 -0.000138 100.102938 9.735771 -11.610487 2.949901 0.000165 -0.000201 68.642971 25.156884 -17.322405 2.644319 0.000016 0.000052 0.000001 -0.000002 -0.000000 8.077732 -0.486879 -3.806186 176.157231 -18.428711 159.901641 3.599854 0.000350 0.014533 107.729821 12.831596 -17.082721 2.099914 0.000188 0.007492 70.492934 25.430367 -17.986677 2.125497 0.000015 0.007510 -0.000000 -0.000001 -0.000000 -8.207786 -6.751667 -1.599560 -0.077001 -0.000003 0.000080 -0.000002 -44.370110 0.345938 0.153719 -0.000000 -0.000000 0.000000 -44.423679 -3.043532 -0.076700 0.000000 -0.000002 -0.000006 -8.728667 10.710559 -0.000009 -0.000000 -0.000000 -0.000001 -0.000679 9.278123 0.000000 -0.000000 -0.000000 8.207792 -6.751710 -1.599556 -0.074518 -0.000003 0.000081 -0.000002 -44.370014 0.346960 0.148822 0.000002 0.000000 -0.000001 -44.423664 -3.044403 -0.074314 0.000000 -0.000002 -0.000004 -8.728671 10.710558 0.000007 -0.000000 -0.000000 0.000000 -0.000680 9.278137 -0.000000 0.000000 -0.000001 
